{
  "accessors": [
    {
      "bufferView": 2,
      "componentType": 5126,
      "count": 9778,
      "max": [
        0.9732189178466797,
        3.5092620849609375,
        1.1479759216308594
      ],
      "min": [
        -0.9732189178466797,
        0.00019417842850089073,
        -1.2395401000976563
      ],
      "type": "VEC3"
    },
    {
      "bufferView": 2,
      "byteOffset": 117336,
      "componentType": 5126,
      "count": 9778,
      "type": "VEC3"
    },
    {
      "bufferView": 3,
      "componentType": 5126,
      "count": 9778,
      "type": "VEC4"
    },
    {
      "bufferView": 1,
      "componentType": 5126,
      "count": 9778,
      "type": "VEC2"
    },
    {
      "bufferView": 0,
      "componentType": 5125,
      "count": 52248,
      "type": "SCALAR"
    },
    {
      "bufferView": 2,
      "byteOffset": 234672,
      "componentType": 5126,
      "count": 3761,
      "max": [
        26.431516647338867,
        44.99999237060547,
        22.890365600585938
      ],
      "min": [
        -26.431516647338867,
        0.0,
        -22.890365600585938
      ],
      "type": "VEC3"
    },
    {
      "bufferView": 2,
      "byteOffset": 279804,
      "componentType": 5126,
      "count": 3761,
      "type": "VEC3"
    },
    {
      "bufferView": 3,
      "byteOffset": 156448,
      "componentType": 5126,
      "count": 3761,
      "type": "VEC4"
    },
    {
      "bufferView": 1,
      "byteOffset": 78224,
      "componentType": 5126,
      "count": 3761,
      "type": "VEC2"
    },
    {
      "bufferView": 0,
      "byteOffset": 208992,
      "componentType": 5125,
      "count": 19152,
      "type": "SCALAR"
    },
    {
      "bufferView": 2,
      "byteOffset": 324936,
      "componentType": 5126,
      "count": 9778,
      "max": [
        0.9732189178466797,
        3.5092620849609375,
        1.1479759216308594
      ],
      "min": [
        -0.9732189178466797,
        0.00019417842850089073,
        -1.2395401000976563
      ],
      "type": "VEC3"
    },
    {
      "bufferView": 2,
      "byteOffset": 442272,
      "componentType": 5126,
      "count": 9778,
      "type": "VEC3"
    },
    {
      "bufferView": 3,
      "byteOffset": 216624,
      "componentType": 5126,
      "count": 9778,
      "type": "VEC4"
    },
    {
      "bufferView": 1,
      "byteOffset": 108312,
      "componentType": 5126,
      "count": 9778,
      "type": "VEC2"
    },
    {
      "bufferView": 0,
      "byteOffset": 285600,
      "componentType": 5125,
      "count": 52248,
      "type": "SCALAR"
    }
  ],
  "asset": {
    "generator": "fab-model-conversion",
    "version": "2.0"
  },
  "bufferViews": [
    {
      "buffer": 0,
      "byteLength": 494592,
      "target": 34963
    },
    {
      "buffer": 0,
      "byteLength": 186536,
      "byteOffset": 494592,
      "byteStride": 8,
      "target": 34962
    },
    {
      "buffer": 0,
      "byteLength": 559608,
      "byteOffset": 681128,
      "byteStride": 12,
      "target": 34962
    },
    {
      "buffer": 0,
      "byteLength": 373072,
      "byteOffset": 1240736,
      "byteStride": 16,
      "target": 34962
    }
  ],
  "buffers": [
    {
      "byteLength": 1613808,
      "uri": "scene.bin"
    }
  ],
  "images": [
    {
      "uri": "textures/M_Chair_baseColor.png"
    },
    {
      "uri": "textures/M_Chair_metallicRoughness.png"
    },
    {
      "uri": "textures/M_Chair_normal.png"
    },
    {
      "uri": "textures/M_Table_baseColor.png"
    },
    {
      "uri": "textures/M_Table_metallicRoughness.png"
    },
    {
      "uri": "textures/M_Table_normal.png"
    }
  ],
  "materials": [
    {
      "doubleSided": true,
      "name": "M_Chair",
      "normalTexture": {
        "index": 2
      },
      "pbrMetallicRoughness": {
        "baseColorTexture": {
          "index": 0
        },
        "metallicRoughnessTexture": {
          "index": 1
        }
      }
    },
    {
      "doubleSided": true,
      "name": "M_Table",
      "normalTexture": {
        "index": 5
      },
      "pbrMetallicRoughness": {
        "baseColorTexture": {
          "index": 3
        },
        "metallicRoughnessTexture": {
          "index": 4
        }
      }
    }
  ],
  "meshes": [
    {
      "name": "Chair2_M_Chair_0",
      "primitives": [
        {
          "attributes": {
            "NORMAL": 1,
            "POSITION": 0,
            "TANGENT": 2,
            "TEXCOORD_0": 3
          },
          "indices": 4,
          "material": 0,
          "mode": 4
        }
      ]
    },
    {
      "name": "Table_M_Table_0",
      "primitives": [
        {
          "attributes": {
            "NORMAL": 6,
            "POSITION": 5,
            "TANGENT": 7,
            "TEXCOORD_0": 8
          },
          "indices": 9,
          "material": 1,
          "mode": 4
        }
      ]
    },
    {
      "name": "Chair1_M_Chair_0",
      "primitives": [
        {
          "attributes": {
            "NORMAL": 11,
            "POSITION": 10,
            "TANGENT": 12,
            "TEXCOORD_0": 13
          },
          "indices": 14,
          "material": 0,
          "mode": 4
        }
      ]
    }
  ],
  "nodes": [
    {
      "children": [
        1
      ],
      "matrix": [
        1.0,
        0.0,
        0.0,
        0.0,
        0.0,
        2.220446049250313e-16,
        -1.0,
        0.0,
        0.0,
        1.0,
        2.220446049250313e-16,
        0.0,
        0.0,
        0.0,
        0.0,
        1.0
      ],
      "name": "Sketchfab_model"
    },
    {
      "children": [
        2
      ],
      "matrix": [
        0.009999999776482582,
        0.0,
        0.0,
        0.0,
        0.0,
        0.0,
        0.009999999776482582,
        0.0,
        0.0,
        -0.009999999776482582,
        0.0,
        0.0,
        0.0,
        0.0,
        0.0,
        1.0
      ],
      "name": "da1b26fbb8144877bdf4bb2f411ffa5c.fbx"
    },
    {
      "children": [
        3
      ],
      "name": "RootNode"
    },
    {
      "children": [
        4,
        6,
        8
      ],
      "matrix": [
        1.56612421959849,
        0.0,
        0.07563509947351643,
        0.0,
        0.0,
        1.5679495334625244,
        0.0,
        0.0,
        -0.07563509947351643,
        0.0,
        1.56612421959849,
        0.0,
        0.0,
        0.0,
        3.6698644161224365,
        1.0
      ],
      "name": "Table_Set"
    },
    {
      "children": [
        5
      ],
      "matrix": [
        1.0,
        0.0,
        1.3877787807814457e-17,
        0.0,
        0.0,
        1.0,
        0.0,
        0.0,
        -1.3877787807814457e-17,
        0.0,
        1.0,
        0.0,
        1.3877787807814457e-17,
        0.0,
        -2.746481418609619,
        1.0
      ],
      "name": "Chair2"
    },
    {
      "mesh": 0,
      "name": "Chair2_M_Chair_0"
    },
    {
      "children": [
        7
      ],
      "matrix": [
        0.0656018778681755,
        0.0,
        4.336808521722186e-19,
        0.0,
        0.0,
        0.0656018778681755,
        0.0,
        0.0,
        -4.336808521722186e-19,
        0.0,
        0.0656018778681755,
        0.0,
        1.1920928955078125e-05,
        0.0,
        0.0,
        1.0
      ],
      "name": "Table"
    },
    {
      "mesh": 1,
      "name": "Table_M_Table_0"
    },
    {
      "children": [
        9
      ],
      "matrix": [
        -0.9991445540534478,
        1.223599180007064e-16,
        -0.04135408208795414,
        0.0,
        1.1740026548866632e-16,
        1.0,
        1.223599180007064e-16,
        0.0,
        0.04135408208795414,
        1.1740026548866632e-16,
        -0.9991445540534478,
        0.0,
        0.0018932960228994489,
        0.0,
        2.813967704772949,
        1.0
      ],
      "name": "Chair1"
    },
    {
      "mesh": 2,
      "name": "Chair1_M_Chair_0"
    }
  ],
  "samplers": [
    {
      "magFilter": 9729,
      "minFilter": 9987,
      "wrapS": 10497,
      "wrapT": 10497
    }
  ],
  "scene": 0,
  "scenes": [
    {
      "name": "Sketchfab_Scene",
      "nodes": [
        0
      ]
    }
  ],
  "textures": [
    {
      "sampler": 0,
      "source": 0
    },
    {
      "sampler": 0,
      "source": 1
    },
    {
      "sampler": 0,
      "source": 2
    },
    {
      "sampler": 0,
      "source": 3
    },
    {
      "sampler": 0,
      "source": 4
    },
    {
      "sampler": 0,
      "source": 5
    }
  ]
}
