{
  "accessors": [
    {
      "bufferView": 2,
      "componentType": 5126,
      "count": 405,
      "max": [
        1.5642712116241455,
        30.97757339477539,
        1.5642712116241455
      ],
      "min": [
        -1.5642712116241455,
        -0.00151023268699646,
        -1.5642712116241455
      ],
      "type": "VEC3"
    },
    {
      "bufferView": 2,
      "byteOffset": 4860,
      "componentType": 5126,
      "count": 405,
      "type": "VEC3"
    },
    {
      "bufferView": 3,
      "componentType": 5126,
      "count": 405,
      "type": "VEC4"
    },
    {
      "bufferView": 1,
      "componentType": 5126,
      "count": 405,
      "type": "VEC2"
    },
    {
      "bufferView": 4,
      "componentType": 5123,
      "count": 405,
      "type": "VEC4"
    },
    {
      "bufferView": 3,
      "byteOffset": 6480,
      "componentType": 5126,
      "count": 405,
      "type": "VEC4"
    },
    {
      "bufferView": 0,
      "componentType": 5125,
      "count": 1968,
      "type": "SCALAR"
    },
    {
      "bufferView": 5,
      "componentType": 5126,
      "count": 5,
      "type": "MAT4"
    }
  ],
  "asset": {
    "generator": "fab-model-conversion",
    "version": "2.0"
  },
  "bufferViews": [
    {
      "buffer": 0,
      "byteLength": 7872,
      "target": 34963
    },
    {
      "buffer": 0,
      "byteLength": 3240,
      "byteOffset": 7872,
      "byteStride": 8,
      "target": 34962
    },
    {
      "buffer": 0,
      "byteLength": 9720,
      "byteOffset": 11112,
      "byteStride": 12,
      "target": 34962
    },
    {
      "buffer": 0,
      "byteLength": 12960,
      "byteOffset": 20832,
      "byteStride": 16,
      "target": 34962
    },
    {
      "buffer": 0,
      "byteLength": 3240,
      "byteOffset": 33792,
      "byteStride": 8,
      "target": 34962
    },
    {
      "buffer": 0,
      "byteLength": 320,
      "byteOffset": 37032
    }
  ],
  "buffers": [
    {
      "byteLength": 37352,
      "uri": "dynamite.bin"
    }
  ],
  "images": [
    {
      "uri": "textures/M_dynamite_mat_baseColor.jpeg"
    },
    {
      "uri": "textures/M_dynamite_mat_metallicRoughness.png"
    },
    {
      "uri": "textures/M_dynamite_mat_normal.png"
    }
  ],
  "materials": [
    {
      "doubleSided": true,
      "name": "M_dynamite_mat",
      "normalTexture": {
        "index": 2
      },
      "pbrMetallicRoughness": {
        "baseColorTexture": {
          "index": 0
        },
        "metallicRoughnessTexture": {
          "index": 1
        }
      }
    }
  ],
  "meshes": [
    {
      "name": "SK_dynamite_M_dynamite_mat_0",
      "primitives": [
        {
          "attributes": {
            "JOINTS_0": 4,
            "NORMAL": 1,
            "POSITION": 0,
            "TANGENT": 2,
            "TEXCOORD_0": 3,
            "WEIGHTS_0": 5
          },
          "indices": 6,
          "material": 0,
          "mode": 4
        }
      ]
    }
  ],
  "nodes": [
    {
      "children": [
        1,
        6
      ],
      "matrix": [
        1.0,
        0.0,
        0.0,
        0.0,
        0.0,
        2.220446049250313e-16,
        -1.0,
        0.0,
        0.0,
        1.0,
        2.220446049250313e-16,
        0.0,
        0.0,
        0.0,
        0.0,
        1.0
      ],
      "name": "Sketchfab_model"
    },
    {
      "children": [
        2
      ],
      "matrix": [
        0.009999999776482582,
        0.0,
        0.0,
        0.0,
        0.0,
        0.0,
        0.009999999776482582,
        0.0,
        0.0,
        -0.009999999776482582,
        0.0,
        0.0,
        0.0,
        0.0,
        0.0,
        1.0
      ],
      "name": "SK_Dynamite.fbx"
    },
    {
      "children": [
        3
      ],
      "name": "RootNode"
    },
    {
      "children": [
        4
      ],
      "matrix": [
        9.474360466003418,
        0.0,
        0.0,
        0.0,
        0.0,
        -1.5435692439243853e-06,
        -9.474360466003294,
        0.0,
        0.0,
        9.474360466003294,
        -1.5435692439243853e-06,
        0.0,
        0.0,
        0.0,
        0.0,
        1.0
      ],
      "name": "Dynamite_Armature"
    },
    {
      "children": [
        5,
        7
      ],
      "name": "Object_4"
    },
    {
      "matrix": [
        1.0000000275325647,
        0.0,
        0.0,
        0.0,
        0.0,
        1.0000000275325647,
        0.0,
        0.0,
        0.0,
        0.0,
        1.0000000275325647,
        0.0,
        0.0,
        0.0,
        0.0,
        1.0
      ],
      "name": "Object_5"
    },
    {
      "mesh": 0,
      "name": "Object_6",
      "skin": 0
    },
    {
      "children": [
        8
      ],
      "name": "dynamite_mainbone_00"
    },
    {
      "children": [
        9
      ],
      "name": "dynamite_wickbone0_01"
    },
    {
      "children": [
        10
      ],
      "name": "dynamite_wickbone1_02"
    },
    {
      "children": [
        11
      ],
      "name": "dynamite_wickbone2_03"
    },
    {
      "children": [
        12
      ],
      "name": "dynamite_wickbone3_04"
    },
    {
      "name": "dynamite_wickbone3_end_05"
    }
  ],
  "samplers": [
    {
      "magFilter": 9729,
      "minFilter": 9987,
      "wrapS": 10497,
      "wrapT": 10497
    }
  ],
  "scene": 0,
  "scenes": [
    {
      "name": "Sketchfab_Scene",
      "nodes": [
        0
      ]
    }
  ],
  "skins": [
    {
      "inverseBindMatrices": 7,
      "joints": [
        9,
        10,
        11,
        7,
        8
      ]
    }
  ],
  "textures": [
    {
      "sampler": 0,
      "source": 0
    },
    {
      "sampler": 0,
      "source": 1
    },
    {
      "sampler": 0,
      "source": 2
    }
  ]
}
