{
  "accessors": [
    {
      "bufferView": 2,
      "componentType": 5126,
      "count": 2474,
      "max": [
        2.2894086837768555,
        2.2824697494506836,
        0.7770230770111084
      ],
      "min": [
        -2.2894086837768555,
        -2.2824697494506836,
        -1.7497074604034424
      ],
      "type": "VEC3"
    },
    {
      "bufferView": 2,
      "byteOffset": 29688,
      "componentType": 5126,
      "count": 2474,
      "max": [
        1.0,
        1.0,
        1.0
      ],
      "min": [
        -1.0,
        -1.0,
        -1.0
      ],
      "type": "VEC3"
    },
    {
      "bufferView": 1,
      "componentType": 5126,
      "count": 2474,
      "max": [
        0.997423529624939,
        0.9943826198577881
      ],
      "min": [
        0.002581477165222168,
        0.002580610802397132
      ],
      "type": "VEC2"
    },
    {
      "bufferView": 0,
      "componentType": 5125,
      "count": 5424,
      "type": "SCALAR"
    },
    {
      "bufferView": 2,
      "byteOffset": 59376,
      "componentType": 5126,
      "count": 108,
      "max": [
        0.33138561248779297,
        0.33815205097198486,
        0.02108684740960598
      ],
      "min": [
        -0.3313858211040497,
        -0.3381519615650177,
        -0.03400702401995659
      ],
      "type": "VEC3"
    },
    {
      "bufferView": 2,
      "byteOffset": 60672,
      "componentType": 5126,
      "count": 108,
      "max": [
        1.0,
        1.0,
        1.0
      ],
      "min": [
        -1.0,
        -1.0,
        -1.0
      ],
      "type": "VEC3"
    },
    {
      "bufferView": 1,
      "byteOffset": 19792,
      "componentType": 5126,
      "count": 108,
      "max": [
        0.995235800743103,
        0.41524726152420044
      ],
      "min": [
        0.002832030411809683,
        0.002580115105956793
      ],
      "type": "VEC2"
    },
    {
      "bufferView": 0,
      "byteOffset": 21696,
      "componentType": 5125,
      "count": 204,
      "type": "SCALAR"
    },
    {
      "bufferView": 2,
      "byteOffset": 61968,
      "componentType": 5126,
      "count": 110,
      "max": [
        0.3313858211040497,
        0.33815205097198486,
        0.02108684740960598
      ],
      "min": [
        -0.33138561248779297,
        -0.3381519615650177,
        -0.03400702401995659
      ],
      "type": "VEC3"
    },
    {
      "bufferView": 2,
      "byteOffset": 63288,
      "componentType": 5126,
      "count": 110,
      "max": [
        1.0,
        1.0,
        1.0
      ],
      "min": [
        -1.0,
        -1.0,
        -1.0
      ],
      "type": "VEC3"
    },
    {
      "bufferView": 1,
      "byteOffset": 20656,
      "componentType": 5126,
      "count": 110,
      "max": [
        0.8856912851333618,
        0.36668747663497925
      ],
      "min": [
        0.04877140745520592,
        0.0025830648373812437
      ],
      "type": "VEC2"
    },
    {
      "bufferView": 0,
      "byteOffset": 22512,
      "componentType": 5125,
      "count": 204,
      "type": "SCALAR"
    },
    {
      "bufferView": 2,
      "byteOffset": 64608,
      "componentType": 5126,
      "count": 108,
      "max": [
        1.3624978065490723,
        1.3903168439865112,
        0.08669888973236084
      ],
      "min": [
        -1.3624969720840454,
        -1.3903172016143799,
        -0.139820396900177
      ],
      "type": "VEC3"
    },
    {
      "bufferView": 2,
      "byteOffset": 65904,
      "componentType": 5126,
      "count": 108,
      "max": [
        1.0,
        1.0,
        1.0
      ],
      "min": [
        -1.0,
        -1.0,
        -1.0
      ],
      "type": "VEC3"
    },
    {
      "bufferView": 1,
      "byteOffset": 21536,
      "componentType": 5126,
      "count": 108,
      "max": [
        0.9449314475059509,
        0.94292813539505
      ],
      "min": [
        0.004954489413648844,
        0.0025815658736974
      ],
      "type": "VEC2"
    },
    {
      "bufferView": 0,
      "byteOffset": 23328,
      "componentType": 5125,
      "count": 204,
      "type": "SCALAR"
    },
    {
      "bufferView": 2,
      "byteOffset": 67200,
      "componentType": 5126,
      "count": 108,
      "max": [
        1.3624969720840454,
        1.3903168439865112,
        0.08669888973236084
      ],
      "min": [
        -1.3624978065490723,
        -1.3903172016143799,
        -0.139820396900177
      ],
      "type": "VEC3"
    },
    {
      "bufferView": 2,
      "byteOffset": 68496,
      "componentType": 5126,
      "count": 108,
      "max": [
        1.0,
        1.0,
        1.0
      ],
      "min": [
        -1.0,
        -1.0,
        -1.0
      ],
      "type": "VEC3"
    },
    {
      "bufferView": 1,
      "byteOffset": 22400,
      "componentType": 5126,
      "count": 108,
      "max": [
        0.9941375255584717,
        0.9423564076423645
      ],
      "min": [
        0.0037986040115356445,
        0.003051170613616705
      ],
      "type": "VEC2"
    },
    {
      "bufferView": 0,
      "byteOffset": 24144,
      "componentType": 5125,
      "count": 204,
      "type": "SCALAR"
    }
  ],
  "asset": {
    "extras": {
      "author": "Batuhan13 (https://sketchfab.com/Batuhan13)",
      "license": "CC-BY-4.0 (http://creativecommons.org/licenses/by/4.0/)",
      "source": "https://sketchfab.com/3d-models/drone-low-poly-1898e02633f94722b9ee91e0c208ad3c",
      "title": "Drone Low Poly"
    },
    "generator": "Sketchfab-12.65.0",
    "version": "2.0"
  },
  "bufferViews": [
    {
      "buffer": 0,
      "byteLength": 24960,
      "name": "floatBufferViews",
      "target": 34963
    },
    {
      "buffer": 0,
      "byteLength": 23264,
      "byteOffset": 24960,
      "byteStride": 8,
      "name": "floatBufferViews",
      "target": 34962
    },
    {
      "buffer": 0,
      "byteLength": 69792,
      "byteOffset": 48224,
      "byteStride": 12,
      "name": "floatBufferViews",
      "target": 34962
    }
  ],
  "buffers": [
    {
      "byteLength": 118016,
      "uri": "lowpolydrone.bin"
    }
  ],
  "images": [
    {
      "uri": "textures/LowPolyDrone_baseColor.png"
    }
  ],
  "materials": [
    {
      "doubleSided": true,
      "name": "LowPolyDrone",
      "pbrMetallicRoughness": {
        "baseColorTexture": {
          "index": 0
        },
        "metallicFactor": 0.0
      }
    }
  ],
  "meshes": [
    {
      "name": "MainBody_LowPolyDrone_0",
      "primitives": [
        {
          "attributes": {
            "NORMAL": 1,
            "POSITION": 0,
            "TEXCOORD_0": 2
          },
          "indices": 3,
          "material": 0,
          "mode": 4
        }
      ]
    },
    {
      "name": "Wing1_LowPolyDrone_0",
      "primitives": [
        {
          "attributes": {
            "NORMAL": 5,
            "POSITION": 4,
            "TEXCOORD_0": 6
          },
          "indices": 7,
          "material": 0,
          "mode": 4
        }
      ]
    },
    {
      "name": "Wing2_LowPolyDrone_0",
      "primitives": [
        {
          "attributes": {
            "NORMAL": 9,
            "POSITION": 8,
            "TEXCOORD_0": 10
          },
          "indices": 11,
          "material": 0,
          "mode": 4
        }
      ]
    },
    {
      "name": "Wing3_LowPolyDrone_0",
      "primitives": [
        {
          "attributes": {
            "NORMAL": 13,
            "POSITION": 12,
            "TEXCOORD_0": 14
          },
          "indices": 15,
          "material": 0,
          "mode": 4
        }
      ]
    },
    {
      "name": "Wing4_LowPolyDrone_0",
      "primitives": [
        {
          "attributes": {
            "NORMAL": 17,
            "POSITION": 16,
            "TEXCOORD_0": 18
          },
          "indices": 19,
          "material": 0,
          "mode": 4
        }
      ]
    }
  ],
  "nodes": [
    {
      "children": [
        1
      ],
      "matrix": [
        1.0,
        0.0,
        0.0,
        0.0,
        0.0,
        2.220446049250313e-16,
        -1.0,
        0.0,
        0.0,
        1.0,
        2.220446049250313e-16,
        0.0,
        0.0,
        0.0,
        0.0,
        1.0
      ],
      "name": "Sketchfab_model"
    },
    {
      "children": [
        2
      ],
      "matrix": [
        1.0,
        0.0,
        0.0,
        0.0,
        0.0,
        0.0,
        1.0,
        0.0,
        0.0,
        -1.0,
        0.0,
        0.0,
        0.0,
        0.0,
        0.0,
        1.0
      ],
      "name": "DroneUvMapped.fbx"
    },
    {
      "children": [
        3,
        5,
        7,
        9,
        11
      ],
      "name": "RootNode"
    },
    {
      "children": [
        4
      ],
      "matrix": [
        24.32193374633789,
        0.0,
        0.0,
        0.0,
        0.0,
        -3.962545970076481e-06,
        -24.32193374633757,
        0.0,
        0.0,
        24.32193374633757,
        -3.962545970076481e-06,
        0.0,
        0.0,
        0.0,
        0.0,
        1.0
      ],
      "name": "MainBody"
    },
    {
      "mesh": 0,
      "name": "MainBody_LowPolyDrone_0"
    },
    {
      "children": [
        6
      ],
      "matrix": [
        100.0,
        0.0,
        0.0,
        0.0,
        0.0,
        -1.629206793918314e-05,
        -99.99999999999868,
        0.0,
        0.0,
        99.99999999999868,
        -1.629206793918314e-05,
        0.0,
        47.95165252685547,
        20.2790584564209,
        -47.66939926147461,
        1.0
      ],
      "name": "Wing1"
    },
    {
      "mesh": 1,
      "name": "Wing1_LowPolyDrone_0"
    },
    {
      "children": [
        8
      ],
      "matrix": [
        100.0,
        0.0,
        0.0,
        0.0,
        -0.0,
        -1.629206793918314e-05,
        -99.99999999999868,
        0.0,
        0.0,
        99.99999999999868,
        -1.629206793918314e-05,
        0.0,
        -47.95165252685547,
        20.2790584564209,
        -47.66939926147461,
        1.0
      ],
      "name": "Wing2"
    },
    {
      "mesh": 2,
      "name": "Wing2_LowPolyDrone_0"
    },
    {
      "children": [
        10
      ],
      "matrix": [
        24.32193374633789,
        0.0,
        0.0,
        0.0,
        -0.0,
        -3.962545970076481e-06,
        -24.32193374633757,
        0.0,
        0.0,
        24.32193374633757,
        -3.962545970076481e-06,
        0.0,
        -47.95165252685547,
        20.2790584564209,
        47.66939926147461,
        1.0
      ],
      "name": "Wing3"
    },
    {
      "mesh": 3,
      "name": "Wing3_LowPolyDrone_0"
    },
    {
      "children": [
        12
      ],
      "matrix": [
        24.32193374633789,
        0.0,
        0.0,
        0.0,
        0.0,
        -3.962545970076481e-06,
        -24.32193374633757,
        0.0,
        0.0,
        24.32193374633757,
        -3.962545970076481e-06,
        0.0,
        47.95165252685547,
        20.2790584564209,
        47.66939926147461,
        1.0
      ],
      "name": "Wing4"
    },
    {
      "mesh": 4,
      "name": "Wing4_LowPolyDrone_0"
    }
  ],
  "samplers": [
    {
      "magFilter": 9729,
      "minFilter": 9987,
      "wrapS": 10497,
      "wrapT": 10497
    }
  ],
  "scene": 0,
  "scenes": [
    {
      "name": "Sketchfab_Scene",
      "nodes": [
        0
      ]
    }
  ],
  "textures": [
    {
      "sampler": 0,
      "source": 0
    }
  ]
}
