{
  "accessors": [
    {
      "bufferView": 2,
      "componentType": 5126,
      "count": 8204,
      "max": [
        1.1850364208221436,
        0.07298524677753448,
        2.0
      ],
      "min": [
        -1.1850364208221436,
        -0.07298524677753448,
        -2.0
      ],
      "type": "VEC3"
    },
    {
      "bufferView": 2,
      "byteOffset": 98448,
      "componentType": 5126,
      "count": 8204,
      "type": "VEC3"
    },
    {
      "bufferView": 3,
      "componentType": 5126,
      "count": 8204,
      "type": "VEC4"
    },
    {
      "bufferView": 1,
      "componentType": 5126,
      "count": 8204,
      "type": "VEC2"
    },
    {
      "bufferView": 1,
      "byteOffset": 65632,
      "componentType": 5126,
      "count": 8204,
      "type": "VEC2"
    },
    {
      "bufferView": 1,
      "byteOffset": 131264,
      "componentType": 5126,
      "count": 8204,
      "type": "VEC2"
    },
    {
      "bufferView": 0,
      "componentType": 5125,
      "count": 12432,
      "type": "SCALAR"
    },
    {
      "bufferView": 2,
      "byteOffset": 196896,
      "componentType": 5126,
      "count": 56,
      "max": [
        1.1437867879867554,
        4.470348358154297e-08,
        1.9587503671646118
      ],
      "min": [
        -1.1437867879867554,
        -3.725290298461914e-08,
        -1.9587503671646118
      ],
      "type": "VEC3"
    },
    {
      "bufferView": 2,
      "byteOffset": 197568,
      "componentType": 5126,
      "count": 56,
      "type": "VEC3"
    },
    {
      "bufferView": 1,
      "byteOffset": 196896,
      "componentType": 5126,
      "count": 56,
      "type": "VEC2"
    },
    {
      "bufferView": 0,
      "byteOffset": 49728,
      "componentType": 5125,
      "count": 162,
      "type": "SCALAR"
    },
    {
      "bufferView": 2,
      "byteOffset": 198240,
      "componentType": 5126,
      "count": 8204,
      "max": [
        1.1850364208221436,
        0.07298524677753448,
        2.0
      ],
      "min": [
        -1.1850364208221436,
        -0.07298524677753448,
        -2.0
      ],
      "type": "VEC3"
    },
    {
      "bufferView": 2,
      "byteOffset": 296688,
      "componentType": 5126,
      "count": 8204,
      "type": "VEC3"
    },
    {
      "bufferView": 3,
      "byteOffset": 131264,
      "componentType": 5126,
      "count": 8204,
      "type": "VEC4"
    },
    {
      "bufferView": 1,
      "byteOffset": 197344,
      "componentType": 5126,
      "count": 8204,
      "type": "VEC2"
    },
    {
      "bufferView": 1,
      "byteOffset": 262976,
      "componentType": 5126,
      "count": 8204,
      "type": "VEC2"
    },
    {
      "bufferView": 1,
      "byteOffset": 328608,
      "componentType": 5126,
      "count": 8204,
      "type": "VEC2"
    },
    {
      "bufferView": 0,
      "byteOffset": 50376,
      "componentType": 5125,
      "count": 12432,
      "type": "SCALAR"
    },
    {
      "bufferView": 2,
      "byteOffset": 395136,
      "componentType": 5126,
      "count": 56,
      "max": [
        1.1437867879867554,
        4.470348358154297e-08,
        1.9587503671646118
      ],
      "min": [
        -1.1437867879867554,
        -3.725290298461914e-08,
        -1.9587503671646118
      ],
      "type": "VEC3"
    },
    {
      "bufferView": 2,
      "byteOffset": 395808,
      "componentType": 5126,
      "count": 56,
      "type": "VEC3"
    },
    {
      "bufferView": 1,
      "byteOffset": 394240,
      "componentType": 5126,
      "count": 56,
      "type": "VEC2"
    },
    {
      "bufferView": 0,
      "byteOffset": 100104,
      "componentType": 5125,
      "count": 162,
      "type": "SCALAR"
    },
    {
      "bufferView": 2,
      "byteOffset": 396480,
      "componentType": 5126,
      "count": 8204,
      "max": [
        1.1850364208221436,
        0.07298524677753448,
        2.0
      ],
      "min": [
        -1.1850364208221436,
        -0.07298524677753448,
        -2.0
      ],
      "type": "VEC3"
    },
    {
      "bufferView": 2,
      "byteOffset": 494928,
      "componentType": 5126,
      "count": 8204,
      "type": "VEC3"
    },
    {
      "bufferView": 3,
      "byteOffset": 262528,
      "componentType": 5126,
      "count": 8204,
      "type": "VEC4"
    },
    {
      "bufferView": 1,
      "byteOffset": 394688,
      "componentType": 5126,
      "count": 8204,
      "type": "VEC2"
    },
    {
      "bufferView": 1,
      "byteOffset": 460320,
      "componentType": 5126,
      "count": 8204,
      "type": "VEC2"
    },
    {
      "bufferView": 1,
      "byteOffset": 525952,
      "componentType": 5126,
      "count": 8204,
      "type": "VEC2"
    },
    {
      "bufferView": 0,
      "byteOffset": 100752,
      "componentType": 5125,
      "count": 12432,
      "type": "SCALAR"
    },
    {
      "bufferView": 2,
      "byteOffset": 593376,
      "componentType": 5126,
      "count": 56,
      "max": [
        1.1437867879867554,
        4.470348358154297e-08,
        1.9587503671646118
      ],
      "min": [
        -1.1437867879867554,
        -3.725290298461914e-08,
        -1.9587503671646118
      ],
      "type": "VEC3"
    },
    {
      "bufferView": 2,
      "byteOffset": 594048,
      "componentType": 5126,
      "count": 56,
      "type": "VEC3"
    },
    {
      "bufferView": 1,
      "byteOffset": 591584,
      "componentType": 5126,
      "count": 56,
      "type": "VEC2"
    },
    {
      "bufferView": 0,
      "byteOffset": 150480,
      "componentType": 5125,
      "count": 162,
      "type": "SCALAR"
    },
    {
      "bufferView": 2,
      "byteOffset": 594720,
      "componentType": 5126,
      "count": 8204,
      "max": [
        1.1850364208221436,
        0.07298524677753448,
        2.0
      ],
      "min": [
        -1.1850364208221436,
        -0.07298524677753448,
        -2.0
      ],
      "type": "VEC3"
    },
    {
      "bufferView": 2,
      "byteOffset": 693168,
      "componentType": 5126,
      "count": 8204,
      "type": "VEC3"
    },
    {
      "bufferView": 3,
      "byteOffset": 393792,
      "componentType": 5126,
      "count": 8204,
      "type": "VEC4"
    },
    {
      "bufferView": 1,
      "byteOffset": 592032,
      "componentType": 5126,
      "count": 8204,
      "type": "VEC2"
    },
    {
      "bufferView": 1,
      "byteOffset": 657664,
      "componentType": 5126,
      "count": 8204,
      "type": "VEC2"
    },
    {
      "bufferView": 1,
      "byteOffset": 723296,
      "componentType": 5126,
      "count": 8204,
      "type": "VEC2"
    },
    {
      "bufferView": 0,
      "byteOffset": 151128,
      "componentType": 5125,
      "count": 12432,
      "type": "SCALAR"
    },
    {
      "bufferView": 2,
      "byteOffset": 791616,
      "componentType": 5126,
      "count": 56,
      "max": [
        1.1437867879867554,
        4.470348358154297e-08,
        1.9587503671646118
      ],
      "min": [
        -1.1437867879867554,
        -3.725290298461914e-08,
        -1.9587503671646118
      ],
      "type": "VEC3"
    },
    {
      "bufferView": 2,
      "byteOffset": 792288,
      "componentType": 5126,
      "count": 56,
      "type": "VEC3"
    },
    {
      "bufferView": 1,
      "byteOffset": 788928,
      "componentType": 5126,
      "count": 56,
      "type": "VEC2"
    },
    {
      "bufferView": 0,
      "byteOffset": 200856,
      "componentType": 5125,
      "count": 162,
      "type": "SCALAR"
    }
  ],
  "asset": {
    "generator": "fab-model-conversion",
    "version": "2.0"
  },
  "bufferViews": [
    {
      "buffer": 0,
      "byteLength": 201504,
      "target": 34963
    },
    {
      "buffer": 0,
      "byteLength": 789376,
      "byteOffset": 201504,
      "byteStride": 8,
      "target": 34962
    },
    {
      "buffer": 0,
      "byteLength": 792960,
      "byteOffset": 990880,
      "byteStride": 12,
      "target": 34962
    },
    {
      "buffer": 0,
      "byteLength": 525056,
      "byteOffset": 1783840,
      "byteStride": 16,
      "target": 34962
    }
  ],
  "buffers": [
    {
      "byteLength": 2308896,
      "uri": "scene.bin"
    }
  ],
  "images": [
    {
      "uri": "textures/Wood_baseColor.jpeg"
    },
    {
      "uri": "textures/Wood_metallicRoughness.jpeg"
    },
    {
      "uri": "textures/Wood_normal.jpeg"
    },
    {
      "uri": "textures/Wicker_baseColor.png"
    }
  ],
  "materials": [
    {
      "doubleSided": true,
      "name": "Wood",
      "normalTexture": {
        "index": 2
      },
      "pbrMetallicRoughness": {
        "baseColorTexture": {
          "index": 0
        },
        "metallicFactor": 0.0,
        "metallicRoughnessTexture": {
          "index": 1
        }
      }
    },
    {
      "doubleSided": true,
      "name": "Wicker",
      "pbrMetallicRoughness": {
        "baseColorTexture": {
          "index": 3
        },
        "metallicFactor": 0.0
      }
    }
  ],
  "meshes": [
    {
      "name": "Divider.0001_Wood_0",
      "primitives": [
        {
          "attributes": {
            "NORMAL": 1,
            "POSITION": 0,
            "TANGENT": 2,
            "TEXCOORD_0": 3,
            "TEXCOORD_1": 4,
            "TEXCOORD_2": 5
          },
          "indices": 6,
          "material": 0,
          "mode": 4
        }
      ]
    },
    {
      "name": "Divider.0001_Wicker_0",
      "primitives": [
        {
          "attributes": {
            "NORMAL": 8,
            "POSITION": 7,
            "TEXCOORD_0": 9
          },
          "indices": 10,
          "material": 1,
          "mode": 4
        }
      ]
    },
    {
      "name": "Divider.0002_Wood_0",
      "primitives": [
        {
          "attributes": {
            "NORMAL": 12,
            "POSITION": 11,
            "TANGENT": 13,
            "TEXCOORD_0": 14,
            "TEXCOORD_1": 15,
            "TEXCOORD_2": 16
          },
          "indices": 17,
          "material": 0,
          "mode": 4
        }
      ]
    },
    {
      "name": "Divider.0002_Wicker_0",
      "primitives": [
        {
          "attributes": {
            "NORMAL": 19,
            "POSITION": 18,
            "TEXCOORD_0": 20
          },
          "indices": 21,
          "material": 1,
          "mode": 4
        }
      ]
    },
    {
      "name": "Divider.0003_Wood_0",
      "primitives": [
        {
          "attributes": {
            "NORMAL": 23,
            "POSITION": 22,
            "TANGENT": 24,
            "TEXCOORD_0": 25,
            "TEXCOORD_1": 26,
            "TEXCOORD_2": 27
          },
          "indices": 28,
          "material": 0,
          "mode": 4
        }
      ]
    },
    {
      "name": "Divider.0003_Wicker_0",
      "primitives": [
        {
          "attributes": {
            "NORMAL": 30,
            "POSITION": 29,
            "TEXCOORD_0": 31
          },
          "indices": 32,
          "material": 1,
          "mode": 4
        }
      ]
    },
    {
      "name": "Divider.0004_Wood_0",
      "primitives": [
        {
          "attributes": {
            "NORMAL": 34,
            "POSITION": 33,
            "TANGENT": 35,
            "TEXCOORD_0": 36,
            "TEXCOORD_1": 37,
            "TEXCOORD_2": 38
          },
          "indices": 39,
          "material": 0,
          "mode": 4
        }
      ]
    },
    {
      "name": "Divider.0004_Wicker_0",
      "primitives": [
        {
          "attributes": {
            "NORMAL": 41,
            "POSITION": 40,
            "TEXCOORD_0": 42
          },
          "indices": 43,
          "material": 1,
          "mode": 4
        }
      ]
    }
  ],
  "nodes": [
    {
      "children": [
        1
      ],
      "matrix": [
        1.0,
        0.0,
        0.0,
        0.0,
        0.0,
        2.220446049250313e-16,
        -1.0,
        0.0,
        0.0,
        1.0,
        2.220446049250313e-16,
        0.0,
        0.0,
        0.0,
        0.0,
        1.0
      ],
      "name": "Sketchfab_model"
    },
    {
      "children": [
        2
      ],
      "matrix": [
        0.009999999776482582,
        0.0,
        0.0,
        0.0,
        0.0,
        0.0,
        0.009999999776482582,
        0.0,
        0.0,
        -0.009999999776482582,
        0.0,
        0.0,
        0.0,
        0.0,
        0.0,
        1.0
      ],
      "name": "83fe35af73b34b3485565e22c0f39537.fbx"
    },
    {
      "children": [
        3
      ],
      "name": "RootNode"
    },
    {
      "children": [
        4,
        5,
        6
      ],
      "matrix": [
        76.3060302734375,
        0.0,
        0.0,
        0.0,
        0.0,
        -1.629206793918314e-05,
        -99.99999999999868,
        0.0,
        0.0,
        99.99999999999868,
        -1.629206793918314e-05,
        0.0,
        267.9195251464844,
        0.0,
        0.0,
        1.0
      ],
      "name": "Divider.0001"
    },
    {
      "mesh": 0,
      "name": "Divider.0001_Wood_0"
    },
    {
      "mesh": 1,
      "name": "Divider.0001_Wicker_0"
    },
    {
      "children": [
        7,
        8,
        9
      ],
      "matrix": [
        0.9381821222655636,
        0.2914074933972939,
        7.2175138573667596e-40,
        0.0,
        -0.3053884649136552,
        0.9831936536288681,
        -2.646977960169688e-23,
        0.0,
        -7.626495201752589e-24,
        2.4553388694344484e-23,
        1.0,
        0.0,
        -2.3605051040649414,
        -0.2584688663482666,
        6.617444900424222e-24,
        1.0
      ],
      "name": "Divider.0002"
    },
    {
      "mesh": 2,
      "name": "Divider.0002_Wood_0"
    },
    {
      "mesh": 3,
      "name": "Divider.0002_Wicker_0"
    },
    {
      "children": [
        10,
        11,
        12
      ],
      "matrix": [
        0.7767058276370707,
        -0.5189951858101051,
        6.617444900424221e-24,
        0.0,
        0.6133478677691566,
        0.9179099850829481,
        4.0553529387925495e-40,
        0.0,
        -5.8900330106903124e-24,
        3.935722725437384e-24,
        0.9999998807907104,
        0.0,
        -2.2324090003967285,
        0.5115818977355957,
        6.617444900424222e-24,
        1.0
      ],
      "name": "Divider.0003"
    },
    {
      "mesh": 4,
      "name": "Divider.0003_Wood_0"
    },
    {
      "mesh": 5,
      "name": "Divider.0003_Wicker_0"
    },
    {
      "children": [
        13,
        14
      ],
      "matrix": [
        0.9387634944390439,
        0.2900997632727786,
        1.3234889800848446e-23,
        0.0,
        -0.3038845030589316,
        0.9833709437716169,
        5.293955920339378e-23,
        0.0,
        2.3167461255056408e-24,
        -5.311885234069132e-23,
        1.0,
        0.0,
        -2.3597869873046875,
        -0.26823872327804565,
        1.6543612251060553e-23,
        1.0
      ],
      "name": "Divider.0004"
    },
    {
      "mesh": 6,
      "name": "Divider.0004_Wood_0"
    },
    {
      "mesh": 7,
      "name": "Divider.0004_Wicker_0"
    }
  ],
  "samplers": [
    {
      "magFilter": 9729,
      "minFilter": 9987,
      "wrapS": 10497,
      "wrapT": 10497
    }
  ],
  "scene": 0,
  "scenes": [
    {
      "name": "Sketchfab_Scene",
      "nodes": [
        0
      ]
    }
  ],
  "textures": [
    {
      "sampler": 0,
      "source": 0
    },
    {
      "sampler": 0,
      "source": 1
    },
    {
      "sampler": 0,
      "source": 2
    },
    {
      "sampler": 0,
      "source": 3
    }
  ]
}
