{
  "accessors": [
    {
      "bufferView": 2,
      "componentType": 5126,
      "count": 1755,
      "max": [
        -0.4277076721191406,
        3.3029744625091553,
        0.35718148946762085
      ],
      "min": [
        -6.111907482147217,
        -0.8294481635093689,
        -0.5006998777389526
      ],
      "type": "VEC3"
    },
    {
      "bufferView": 2,
      "byteOffset": 21060,
      "componentType": 5126,
      "count": 1755,
      "type": "VEC3"
    },
    {
      "bufferView": 1,
      "componentType": 5126,
      "count": 1755,
      "type": "VEC2"
    },
    {
      "bufferView": 0,
      "componentType": 5125,
      "count": 9432,
      "type": "SCALAR"
    },
    {
      "bufferView": 2,
      "byteOffset": 42120,
      "componentType": 5126,
      "count": 1862,
      "max": [
        0.4093194007873535,
        3.309866189956665,
        6.105851650238037
      ],
      "min": [
        -0.46444272994995117,
        -0.8225563764572144,
        0.42014262080192566
      ],
      "type": "VEC3"
    },
    {
      "bufferView": 2,
      "byteOffset": 64464,
      "componentType": 5126,
      "count": 1862,
      "type": "VEC3"
    },
    {
      "bufferView": 1,
      "byteOffset": 14040,
      "componentType": 5126,
      "count": 1862,
      "type": "VEC2"
    },
    {
      "bufferView": 0,
      "byteOffset": 37728,
      "componentType": 5125,
      "count": 9432,
      "type": "SCALAR"
    },
    {
      "bufferView": 2,
      "byteOffset": 86808,
      "componentType": 5126,
      "count": 1752,
      "max": [
        6.1150336265563965,
        3.3012797832489014,
        0.3822612762451172
      ],
      "min": [
        0.4318671226501465,
        -0.8311426639556885,
        -0.46309876441955566
      ],
      "type": "VEC3"
    },
    {
      "bufferView": 2,
      "byteOffset": 107832,
      "componentType": 5126,
      "count": 1752,
      "type": "VEC3"
    },
    {
      "bufferView": 1,
      "byteOffset": 28936,
      "componentType": 5126,
      "count": 1752,
      "type": "VEC2"
    },
    {
      "bufferView": 0,
      "byteOffset": 75456,
      "componentType": 5125,
      "count": 9420,
      "type": "SCALAR"
    },
    {
      "bufferView": 2,
      "byteOffset": 128856,
      "componentType": 5126,
      "count": 1755,
      "max": [
        0.4226799011230469,
        3.3103866577148438,
        -0.44424721598625183
      ],
      "min": [
        -0.4226799011230469,
        -0.8220357894897461,
        -6.127413749694824
      ],
      "type": "VEC3"
    },
    {
      "bufferView": 2,
      "byteOffset": 149916,
      "componentType": 5126,
      "count": 1755,
      "type": "VEC3"
    },
    {
      "bufferView": 1,
      "byteOffset": 42952,
      "componentType": 5126,
      "count": 1755,
      "type": "VEC2"
    },
    {
      "bufferView": 0,
      "byteOffset": 113136,
      "componentType": 5125,
      "count": 9432,
      "type": "SCALAR"
    },
    {
      "bufferView": 2,
      "byteOffset": 170976,
      "componentType": 5126,
      "count": 1775,
      "max": [
        3.899602174758911,
        8.179879188537598,
        4.105198860168457
      ],
      "min": [
        -4.722478866577148,
        7.429725646972656,
        -4.063986301422119
      ],
      "type": "VEC3"
    },
    {
      "bufferView": 2,
      "byteOffset": 192276,
      "componentType": 5126,
      "count": 1775,
      "type": "VEC3"
    },
    {
      "bufferView": 1,
      "byteOffset": 56992,
      "componentType": 5126,
      "count": 1775,
      "type": "VEC2"
    },
    {
      "bufferView": 0,
      "byteOffset": 150864,
      "componentType": 5125,
      "count": 9600,
      "type": "SCALAR"
    },
    {
      "bufferView": 2,
      "byteOffset": 213576,
      "componentType": 5126,
      "count": 23125,
      "max": [
        0.922666072845459,
        7.46206521987915,
        0.9514148831367493
      ],
      "min": [
        -0.9389491081237793,
        1.2567181587219238,
        -0.9102012515068054
      ],
      "type": "VEC3"
    },
    {
      "bufferView": 2,
      "byteOffset": 491076,
      "componentType": 5126,
      "count": 23125,
      "type": "VEC3"
    },
    {
      "bufferView": 1,
      "byteOffset": 71192,
      "componentType": 5126,
      "count": 23125,
      "type": "VEC2"
    },
    {
      "bufferView": 0,
      "byteOffset": 189264,
      "componentType": 5125,
      "count": 130470,
      "type": "SCALAR"
    },
    {
      "bufferView": 2,
      "byteOffset": 768576,
      "componentType": 5126,
      "count": 21845,
      "max": [
        -6.214292526245117,
        11.370595932006836,
        0.9317855834960938
      ],
      "min": [
        -8.075906753540039,
        -4.804393291473389,
        -0.9298305511474609
      ],
      "type": "VEC3"
    },
    {
      "bufferView": 2,
      "byteOffset": 1030716,
      "componentType": 5126,
      "count": 21845,
      "type": "VEC3"
    },
    {
      "bufferView": 1,
      "byteOffset": 256192,
      "componentType": 5126,
      "count": 21845,
      "type": "VEC2"
    },
    {
      "bufferView": 0,
      "byteOffset": 711144,
      "componentType": 5125,
      "count": 128352,
      "type": "SCALAR"
    },
    {
      "bufferView": 2,
      "byteOffset": 1292856,
      "componentType": 5126,
      "count": 21845,
      "max": [
        -6.214292526245117,
        11.370595932006836,
        0.9317855834960938
      ],
      "min": [
        -8.075906753540039,
        -4.804393291473389,
        -0.9298305511474609
      ],
      "type": "VEC3"
    },
    {
      "bufferView": 2,
      "byteOffset": 1554996,
      "componentType": 5126,
      "count": 21845,
      "type": "VEC3"
    },
    {
      "bufferView": 1,
      "byteOffset": 430952,
      "componentType": 5126,
      "count": 21845,
      "type": "VEC2"
    },
    {
      "bufferView": 0,
      "byteOffset": 1224552,
      "componentType": 5125,
      "count": 128352,
      "type": "SCALAR"
    },
    {
      "bufferView": 2,
      "byteOffset": 1817136,
      "componentType": 5126,
      "count": 21754,
      "max": [
        5.555762767791748,
        15.551803588867188,
        0.3530031442642212
      ],
      "min": [
        2.7636351585388184,
        8.178766250610352,
        -0.3530031442642212
      ],
      "type": "VEC3"
    },
    {
      "bufferView": 2,
      "byteOffset": 2078184,
      "componentType": 5126,
      "count": 21754,
      "type": "VEC3"
    },
    {
      "bufferView": 1,
      "byteOffset": 605712,
      "componentType": 5126,
      "count": 21754,
      "type": "VEC2"
    },
    {
      "bufferView": 0,
      "byteOffset": 1737960,
      "componentType": 5125,
      "count": 126240,
      "type": "SCALAR"
    },
    {
      "bufferView": 2,
      "byteOffset": 2339232,
      "componentType": 5126,
      "count": 322,
      "max": [
        5.238188743591309,
        14.484375,
        2.897066593170166
      ],
      "min": [
        3.4906668663024902,
        12.401865005493164,
        -2.7521767616271973
      ],
      "type": "VEC3"
    },
    {
      "bufferView": 2,
      "byteOffset": 2343096,
      "componentType": 5126,
      "count": 322,
      "type": "VEC3"
    },
    {
      "bufferView": 1,
      "byteOffset": 779744,
      "componentType": 5126,
      "count": 322,
      "type": "VEC2"
    },
    {
      "bufferView": 0,
      "byteOffset": 2242920,
      "componentType": 5125,
      "count": 1392,
      "type": "SCALAR"
    }
  ],
  "asset": {
    "generator": "fab-model-conversion",
    "version": "2.0"
  },
  "bufferViews": [
    {
      "buffer": 0,
      "byteLength": 2248488,
      "target": 34963
    },
    {
      "buffer": 0,
      "byteLength": 782320,
      "byteOffset": 2248488,
      "byteStride": 8,
      "target": 34962
    },
    {
      "buffer": 0,
      "byteLength": 2346960,
      "byteOffset": 3030808,
      "byteStride": 12,
      "target": 34962
    }
  ],
  "buffers": [
    {
      "byteLength": 5377768,
      "uri": "scene.bin"
    }
  ],
  "extensionsUsed": [
    "KHR_materials_specular"
  ],
  "images": [
    {
      "uri": "textures/blinn7_baseColor.png"
    },
    {
      "uri": "textures/blinn6_baseColor.png"
    },
    {
      "uri": "textures/blinn9_baseColor.png"
    },
    {
      "uri": "textures/blinn8_baseColor.png"
    },
    {
      "uri": "textures/lambert1_baseColor.png"
    },
    {
      "uri": "textures/blinn5_baseColor.png"
    },
    {
      "uri": "textures/blinn3_baseColor.png"
    },
    {
      "uri": "textures/blinn1_baseColor.png"
    },
    {
      "uri": "textures/blinn2_baseColor.png"
    },
    {
      "uri": "textures/blinn4_baseColor.png"
    }
  ],
  "materials": [
    {
      "doubleSided": true,
      "name": "blinn7",
      "pbrMetallicRoughness": {
        "baseColorTexture": {
          "index": 0
        },
        "metallicFactor": 0.0,
        "roughnessFactor": 0.3337153027513988
      }
    },
    {
      "doubleSided": true,
      "name": "blinn6",
      "pbrMetallicRoughness": {
        "baseColorTexture": {
          "index": 1
        },
        "metallicFactor": 0.0,
        "roughnessFactor": 0.32152478940888196
      }
    },
    {
      "doubleSided": true,
      "name": "blinn9",
      "pbrMetallicRoughness": {
        "baseColorTexture": {
          "index": 2
        },
        "metallicFactor": 0.0,
        "roughnessFactor": 0.3337153027513988
      }
    },
    {
      "doubleSided": true,
      "name": "blinn8",
      "pbrMetallicRoughness": {
        "baseColorTexture": {
          "index": 3
        },
        "metallicFactor": 0.0,
        "roughnessFactor": 0.30933427606636515
      }
    },
    {
      "doubleSided": true,
      "extensions": {
        "KHR_materials_specular": {
          "specularColorFactor": [
            1.0,
            1.0,
            1.0
          ],
          "specularFactor": 0.3459058160939157
        }
      },
      "name": "lambert1",
      "pbrMetallicRoughness": {
        "baseColorTexture": {
          "index": 4
        },
        "metallicFactor": 0.2118101693262303,
        "roughnessFactor": 0.08990503590106179
      }
    },
    {
      "doubleSided": true,
      "name": "blinn5",
      "pbrMetallicRoughness": {
        "baseColorTexture": {
          "index": 5
        },
        "metallicFactor": 0.0,
        "roughnessFactor": 0.33981055942265725
      }
    },
    {
      "doubleSided": true,
      "name": "blinn3",
      "pbrMetallicRoughness": {
        "baseColorTexture": {
          "index": 6
        },
        "metallicFactor": 0.0,
        "roughnessFactor": 0.3520010727651741
      }
    },
    {
      "doubleSided": true,
      "name": "blinn1",
      "pbrMetallicRoughness": {
        "baseColorTexture": {
          "index": 7
        },
        "metallicFactor": 0.0,
        "roughnessFactor": 0.3276200460801404
      }
    },
    {
      "doubleSided": true,
      "name": "blinn2",
      "pbrMetallicRoughness": {
        "baseColorTexture": {
          "index": 8
        },
        "metallicFactor": 0.0,
        "roughnessFactor": 0.33981055942265725
      }
    },
    {
      "doubleSided": true,
      "name": "blinn4",
      "pbrMetallicRoughness": {
        "baseColorTexture": {
          "index": 9
        },
        "metallicFactor": 0.0,
        "roughnessFactor": 0.2
      }
    }
  ],
  "meshes": [
    {
      "name": "leg_5_blinn7_0",
      "primitives": [
        {
          "attributes": {
            "NORMAL": 1,
            "POSITION": 0,
            "TEXCOORD_0": 2
          },
          "indices": 3,
          "material": 0,
          "mode": 4
        }
      ]
    },
    {
      "name": "leg_4_blinn6_0",
      "primitives": [
        {
          "attributes": {
            "NORMAL": 5,
            "POSITION": 4,
            "TEXCOORD_0": 6
          },
          "indices": 7,
          "material": 1,
          "mode": 4
        }
      ]
    },
    {
      "name": "leg_3_blinn9_0",
      "primitives": [
        {
          "attributes": {
            "NORMAL": 9,
            "POSITION": 8,
            "TEXCOORD_0": 10
          },
          "indices": 11,
          "material": 2,
          "mode": 4
        }
      ]
    },
    {
      "name": "leg_2_blinn8_0",
      "primitives": [
        {
          "attributes": {
            "NORMAL": 13,
            "POSITION": 12,
            "TEXCOORD_0": 14
          },
          "indices": 15,
          "material": 3,
          "mode": 4
        }
      ]
    },
    {
      "name": "pCylinder2_lambert1_0",
      "primitives": [
        {
          "attributes": {
            "NORMAL": 17,
            "POSITION": 16,
            "TEXCOORD_0": 18
          },
          "indices": 19,
          "material": 4,
          "mode": 4
        }
      ]
    },
    {
      "name": "legs_holder_blinn5_0",
      "primitives": [
        {
          "attributes": {
            "NORMAL": 21,
            "POSITION": 20,
            "TEXCOORD_0": 22
          },
          "indices": 23,
          "material": 5,
          "mode": 4
        }
      ]
    },
    {
      "name": "legs_holder2_blinn3_0",
      "primitives": [
        {
          "attributes": {
            "NORMAL": 25,
            "POSITION": 24,
            "TEXCOORD_0": 26
          },
          "indices": 27,
          "material": 6,
          "mode": 4
        }
      ]
    },
    {
      "name": "legs_holder3_blinn1_0",
      "primitives": [
        {
          "attributes": {
            "NORMAL": 29,
            "POSITION": 28,
            "TEXCOORD_0": 30
          },
          "indices": 31,
          "material": 7,
          "mode": 4
        }
      ]
    },
    {
      "name": "legs_holder4_blinn2_0",
      "primitives": [
        {
          "attributes": {
            "NORMAL": 33,
            "POSITION": 32,
            "TEXCOORD_0": 34
          },
          "indices": 35,
          "material": 8,
          "mode": 4
        }
      ]
    },
    {
      "name": "pCube1_blinn4_0",
      "primitives": [
        {
          "attributes": {
            "NORMAL": 37,
            "POSITION": 36,
            "TEXCOORD_0": 38
          },
          "indices": 39,
          "material": 9,
          "mode": 4
        }
      ]
    }
  ],
  "nodes": [
    {
      "children": [
        1
      ],
      "matrix": [
        1.0,
        0.0,
        0.0,
        0.0,
        0.0,
        2.220446049250313e-16,
        -1.0,
        0.0,
        0.0,
        1.0,
        2.220446049250313e-16,
        0.0,
        0.0,
        0.0,
        0.0,
        1.0
      ],
      "name": "Sketchfab_model"
    },
    {
      "children": [
        2
      ],
      "matrix": [
        1.0,
        0.0,
        0.0,
        0.0,
        0.0,
        0.0,
        1.0,
        0.0,
        0.0,
        -1.0,
        0.0,
        0.0,
        0.0,
        0.0,
        0.0,
        1.0
      ],
      "name": "b0893e126a7f433b9f7dad297d53f6bf.fbx"
    },
    {
      "children": [
        3,
        5,
        7,
        9,
        11,
        13,
        15,
        17,
        19,
        21
      ],
      "name": "RootNode"
    },
    {
      "children": [
        4
      ],
      "name": "leg_5"
    },
    {
      "mesh": 0,
      "name": "leg_5_blinn7_0"
    },
    {
      "children": [
        6
      ],
      "name": "leg_4"
    },
    {
      "mesh": 1,
      "name": "leg_4_blinn6_0"
    },
    {
      "children": [
        8
      ],
      "name": "leg_3"
    },
    {
      "mesh": 2,
      "name": "leg_3_blinn9_0"
    },
    {
      "children": [
        10
      ],
      "name": "leg_2"
    },
    {
      "mesh": 3,
      "name": "leg_2_blinn8_0"
    },
    {
      "children": [
        12
      ],
      "name": "pCylinder2"
    },
    {
      "mesh": 4,
      "name": "pCylinder2_lambert1_0"
    },
    {
      "children": [
        14
      ],
      "name": "legs_holder"
    },
    {
      "mesh": 5,
      "name": "legs_holder_blinn5_0"
    },
    {
      "children": [
        16
      ],
      "matrix": [
        0.36379294799699197,
        -0.10714761729591343,
        -3.505906299362207e-33,
        0.0,
        -0.10714761729591343,
        -0.36379294799699186,
        4.644398043631971e-17,
        0.0,
        -1.3121798655770596e-17,
        -4.455178693168956e-17,
        -0.3792438805103301,
        0.0,
        6.137504577636719,
        11.458605766296387,
        3.000370740890503,
        1.0
      ],
      "name": "legs_holder2"
    },
    {
      "mesh": 6,
      "name": "legs_holder2_blinn3_0"
    },
    {
      "children": [
        18
      ],
      "matrix": [
        0.363792947996992,
        -0.1071476172959135,
        -3.505906299362207e-33,
        -0.0,
        -0.1071476172959135,
        -0.3637929479969919,
        4.644398043631972e-17,
        -0.0,
        1.312179865577061e-17,
        4.4551786931689575e-17,
        0.37924388051033037,
        -0.0,
        6.137504577636719,
        11.458605766296387,
        -3.000370740890503,
        1.0
      ],
      "name": "legs_holder3"
    },
    {
      "mesh": 7,
      "name": "legs_holder3_blinn1_0"
    },
    {
      "children": [
        20
      ],
      "name": "legs_holder4"
    },
    {
      "mesh": 8,
      "name": "legs_holder4_blinn2_0"
    },
    {
      "children": [
        22
      ],
      "name": "pCube1"
    },
    {
      "mesh": 9,
      "name": "pCube1_blinn4_0"
    }
  ],
  "samplers": [
    {
      "magFilter": 9729,
      "minFilter": 9987,
      "wrapS": 10497,
      "wrapT": 10497
    }
  ],
  "scene": 0,
  "scenes": [
    {
      "name": "Sketchfab_Scene",
      "nodes": [
        0
      ]
    }
  ],
  "textures": [
    {
      "sampler": 0,
      "source": 0
    },
    {
      "sampler": 0,
      "source": 1
    },
    {
      "sampler": 0,
      "source": 2
    },
    {
      "sampler": 0,
      "source": 3
    },
    {
      "sampler": 0,
      "source": 4
    },
    {
      "sampler": 0,
      "source": 5
    },
    {
      "sampler": 0,
      "source": 6
    },
    {
      "sampler": 0,
      "source": 7
    },
    {
      "sampler": 0,
      "source": 8
    },
    {
      "sampler": 0,
      "source": 9
    }
  ]
}
